# xmcd
#
# Track frame offsets:
#	150
#	21240
#	38160
#	55355
#	76075
#	90952
#	105850
#	130420
#	146937
#	167995
#	184965
#	202157
#	222880
#	237745
#	252582
#	277097
#
# Disc length: 3915 seconds
#
# Revision: 1
# Processed by: cddbd v1.5.1PL2 Copyright (c) Steve Scherf et al.
# Submitted via: audiograbber 1.83.01
#
DISCID=f30f4910
DTITLE=Womack, Le Ann - Sc2258
DYEAR=1900
DGENRE=Country
TTITLE0=I Hope You Dance
TTITLE1=Why They Call It Falling
TTITLE2=Stronger Than I Am
TTITLE3=Ashes By Now
TTITLE4=After I Fall
TTITLE5=Healing Kind, The
TTITLE6=I Know Why The River Runs
TTITLE7=Does My Ring Burn Your Finger
TTITLE8=I Hope You Dance
TTITLE9=Why They Call It Falling
TTITLE10=Stronger Than I Am
TTITLE11=Ashes By Now
TTITLE12=After I Fall
TTITLE13=Healing Kind, The
TTITLE14=I Know Why The River Runs
TTITLE15=Does My Ring Burn Your Finger
EXTD=
EXTT0=
EXTT1=
EXTT2=
EXTT3=
EXTT4=
EXTT5=
EXTT6=
EXTT7=
EXTT8=
EXTT9=
EXTT10=
EXTT11=
EXTT12=
EXTT13=
EXTT14=
EXTT15=
PLAYORDER=
